<?xml version="1.0" encoding="UTF-8"?>
<svg version="1.1" viewBox="0 0 1024 1024" width="1024" height="1024" xmlns="http://www.w3.org/2000/svg">
<path transform="translate(0)" d="m0 0h1024v1024h-1024z" fill="#404041"/>
<path transform="translate(894,656)" d="m0 0 3 2-3 3 9-1 6 2 14 7 12 5 29 13 15 7 33 15 12 6v309h-1024v-310l29-13 36-16 20-9 4-2 30-2 5-1 1 1h21l11 1v-1l9 1v-2l6 1 13-1 6-1 1 2 4-1 6-2h2v2l3-2-2-2 11 1 6 1 4-1 12 1 2 1h27l-6-1v-1l10-1 2 1v2l5 2 10 5v4 2l5 1-3 3-17 1-25 1v2l6 1 26 1 77 1 87-1 17-1h12l4-1 2 1v-2l-10-1-4-3h3v-2h-44l-2 1v-2l-6 1h-10v-2l17-9 4-3h3v-2h3l1-3 4-3 5 2 8-1h28l30-2h-7l3-3h28v2h30l12 7 6 4 3 1v2l8 2v2l24 8v1l-38 2-5 1-4 2h25l41 1h48l77-1 4-1-21-2-26-1-6-1 3-2 9-3 15-7 12-7 8-5 2-3h58l18 2 1-2 6 1h19l2 1 1-2v2l5-1h13l5-2 3 1 1 1v-3h2z" fill="#404041"/>
<path transform="translate(894,656)" d="m0 0 3 2-3 3 9-1 6 2 14 7 12 5 29 13 15 7 33 15 12 6v135h-420l-452 1h-152v-137l29-13 36-16 20-9 4-2 30-2 5-1 1 1h21l11 1v-1l9 1v-2l6 1 13-1 6-1 1 2 4-1 6-2h2v2l3-2-2-2 11 1 6 1 4-1 12 1 2 1h27l-6-1v-1l10-1 2 1v2l5 2 10 5v4 2l5 1-3 3-17 1-25 1v2l6 1 26 1 77 1 87-1 17-1h12l4-1 2 1v-2l-10-1-4-3h3v-2h-44l-2 1v-2l-6 1h-10v-2l17-9 4-3h3v-2h3l1-3 4-3 5 2 8-1h28l30-2h-7l3-3h28v2h30l12 7 6 4 3 1v2l8 2v2l24 8v1l-38 2-5 1-4 2h25l41 1h48l77-1 4-1-21-2-26-1-6-1 3-2 9-3 15-7 12-7 8-5 2-3h58l18 2 1-2 6 1h19l2 1 1-2v2l5-1h13l5-2 3 1 1 1v-3h2z" fill="#3F3F40"/>
<path transform="translate(536,851)" d="m0 0h488v173h-388l-38-10-29-8-49-13-32-9-1-3-3-2 1-2h2l-4-4-4-3 1-3 4-1 4-3-2-2v-3l-2-1h3l1-5-2-2 1-5 1-3 4-1-1-4 3-6-1-3 2-1-1-4 1 2 2-3v-4h3l2-10 3-1 4-10 4-4 3-9 3-1v-5h2l-1-2 3-1 2-4h2l1-5 4-7 2-7z" fill="#404041"/>
<path transform="translate(604,849)" d="m0 0h384l36 1v1l-20 1h-468l-2 2v3h-2l1 3-5 8-1 3h-2l-2 6-1 1-1 2-1 1-2 4-2 3-3 7-2 6h-2l-2 1-2 5-2 2-1 2 2 1-2 2-1 5h-3l-1 6-2 1 1 2-2 1 1 3-2 5h-2l2 5-2 1-3-1-1 6 2 6-3 4 3 6-7 4h-2l1 3 5 3 3 5-4-1 5 5 9 3 40 11 45 12 29 8 23 6v1l-11-1-78-21-42-11-44-12-19-5h-9l-5 2-6 1h-13l-24-1h-21l-41-4h-9l-40-4-23-2-23-4-21-4-10-4-9-7-11-8-5-5-2-7-3-16-4-9v-3l-7-2-2-2-1-45z" fill="#1B1A1B"/>
<path transform="translate(894,656)" d="m0 0 3 2-3 3 9-1 6 2 14 7 12 5 29 13 15 7 33 15 12 6v2l-319 1-440-1v2l-10-1h-126l-100-1h-29v-3l29-13 36-16 20-9 4-2 30-2 5-1 1 1h21l11 1v-1l9 1v-2l6 1 13-1 6-1 1 2 4-1 6-2h2v2l3-2-2-2 11 1 6 1 4-1 12 1 2 1h27l-6-1v-1l10-1 2 1v2l5 2 10 5v4 2l5 1-3 3-17 1-25 1v2l6 1 26 1 77 1 87-1 17-1h12l4-1 2 1v-2l-10-1-4-3h3v-2h-44l-2 1v-2l-6 1h-10v-2l17-9 4-3h3v-2h3l1-3 4-3 5 2 8-1h28l30-2h-7l3-3h28v2h30l12 7 6 4 3 1v2l8 2v2l24 8v1l-38 2-5 1-4 2h25l41 1h48l77-1 4-1-21-2-26-1-6-1 3-2 9-3 15-7 12-7 8-5 2-3h58l18 2 1-2 6 1h19l2 1 1-2v2l5-1h13l5-2 3 1 1 1v-3h2z" fill="#89898B"/>
<path transform="translate(662,307)" d="m0 0 22 1 17 3 19 6 16 7 15 9 13 10 12 11 11 12 6 8v2l-3 2h-3v2h-3v2l-5 1v2l-9 3v2h-3v2l-7 2v2l-5 1v2l-6 1v-4l20-12-1-7h-2l-6-8-2-1v-2h-2l-4-5-3-2v-2l-4-2-12-8-10-6-19-7-15-4-18-2h-23l-16 3-12 3-12 5-20 11-10 8-8 7-3 5h-2v2h-2l-2 5h-2l-2 5-3 6h-2l-2 6-5 11-6 17-3 12-5 40v16l1 21 2 19 4 19 7 17 4 7v2l7 1 2-7 1-11-1-9 2 3 6 17 9 17 10 14 15 15 15 10 19 8 16 4h27l18-4 16-8 11-7 13-12 9-10 4-6 5 1 7 4 5 2 19 14 5 5 5 4 3 1-2 5-5 4 2-4 3-4-3 1-9 11-20 20-15 11-23 12-19 7-19 4-8 1h-30l-19-3-16-4-19-8-17-9-14-10-12-11-9-9-12-16-9-15-9-19-8-24-5-25-1-1-2-18v-37l2-21 5-25 7-21 4-9 7-14 10-16 5-6 7-6 7-8 12-11 16-11 16-9 17-7 17-5 19-3z" fill="#1B1A1B"/>
<path transform="translate(423,309)" d="m0 0h53v12l-2 2-6-1-8 3-7 12-1 10v12l-1 10 1 18v22l1 17v13l1 12 2 45 1 15 1 29 1 12v27l-2 17-4 15-4 9-8 13h-2l-2 5-8 7-17 12-10 5-1 4 3 1h14l10-5 11-9 7-6-2 5-11 9-9 7-16 9-15 6-16 4-17 2h-16l-18-2-19-5-12-5-17-9-13-10-9-8-7-8-11-15-12-23-2-5 23-11 26-12h2l4 11 8 15 9 11 10 9 14 8 16 5 13 2h10l14-2 9-4h2v-2l10-4 9-10 6-8 3-3 2-5 1-4h2l2-14 2-8 1-42h1z" fill="#1B1A1B"/>
<path transform="translate(1013,851)" d="m0 0h11v95l-9-1-27-5-25-5-18-4-11-2-32-6-13-3-26-5-12-2-9-2-28-5-2-1-9-1-4-2-30-5-19-4-19-3-18-4-19-3-19-4-66-12-13-3-26-5 2-2 9 2 15 2h21l6 1 1-2v2h20l19-1 4 1 17 1 1-2h7l6 1h18l4-1 5 1h53l12 2h15l8-3 9 2 1-2v2l7-2h8l16-2h3l3 1 5-3 3 1 8 1 1-2h9l1-1h18l5 1h13 1l1 2 7-1h14l4 1 7-1h9 3l13-1 5 1 4-3v3h10l3-1 2 1h12l-5-5z" fill="#ABABAC"/>
<path transform="translate(842,669)" d="m0 0 9 3 8-1 8 1h16l22 2 2 2h5v-1h6l3 3h8l7-1 3-1 25 11 15 7 33 15 12 6v1h-535l4-2-1-2 9-1 8-3 8-1 1-2 9-1h11l3 1v-2h9l4-1-2 1 4 1 2-1h10l2-1 14-1h19l-1-3h19l5 1 3-1 17-1h32l15 1 2-1 3 1 14-1 5-1 7-1h37l36-1-1-4-8-1-13-1-1-2-6-1v-3h-6l4-2 3 1v-2h-2v-2l8-1 3-2h4v-2h31l7-1h10l4-1h7z" fill="#ABABAC"/>
<path transform="translate(479,513)" d="m0 0h1l1 27 2 17h17l-1-7h2l2 7v4h3l8 24 11 23 10 15 11 14 14 14 15 11 16 9 15 7 15 5 19 4 9 1h30l24-4 17-6 21-10 14-9 11-9 18-18 8-10h3l-2 4-2 2-2 5-6 5-3 5-12 12-8 6-4 4-11 7-17 9-14 5 3 1 41 2 9 2v1l-7 1-77 1h-48l-66-2 1-2 1-1 7-1 36-2-15-5-7-3v-2l-6-1-2-1v-2l-5-1-14-9-2-1-30-1v-2l-12 1h-16l-2 1h7l1 2-32 2h-31l-5 1-5-2-5 5h-3v2l-9 5-13 7h-2v2l6-1h43l13 1-1 3 12 3v2l-7 1h-11l-17 1-88 1-76-1-26-1-8-1 2-1v-2l25-2 16-1 2-2-3-1v-2l-4-1 3-1 1-2-9-3-6-4v-2l-4-2-11-9-10-10 1-2 13 13 15 11 16 9 18 7 11 3 15 2h31l20-4 15-5 16-8 14-9 11-10 9-11 9-14 7-15 5-16 2-10 1-16 1-4z" fill="#3F3F40"/>
<path transform="translate(894,656)" d="m0 0 3 2-3 3 9-1 6 2 14 7 12 5 3 2-2 2-13 1-9-1 4-2h-5v1h-7l-1-2-26-2h-12l-10-1-6 1-9-3-1 1h-9l-7 1h-8l-7 1-28-1v2l-6 2v1h-9v2h2v2h-3l2 1v3l9 1v1l11 1 8 2 1 4-2 1-44 1h-32l-5 2h-2l-15 1h-3l-25-1h-29l-11 1-6 1-4-1h-11l-6-1v2l3 1-6 1h-20l-9 1-7 1h-5l-5 1-2-3-1 2-9-1v2h-20l2 2-14 2-10 3-6 1 1 2-5 1h-234l-10-2-3-2h9l-7-2-1-2 12 1 6-2 3-2h6l4-1h5l2 3 6-1-1-3h20l2-1h22l3-1h11l5-1h8v-2h8l1 1 6-2h10v2l4-2 7 1 4 1v-2h9l3-1 17 1 9 1 1-1h7l-1 2h8l5 1 5 2h11l4 1h17l4-2 2 1 8-1v2l7-1h9l5-1h11l5-1 1-1h11l10-1 2-1 7 1h12l16-2h14l12-1 88-1 47-1 23-1-9-2-14-1-46-1-6-1 3-2 9-3 15-7 12-7 8-5 2-3h58l18 2 1-2 6 1h19l2 1 1-2v2l5-1h13l5-2 3 1 1 1v-3h2z" fill="#89898B"/>
<path transform="translate(468,321)" d="m0 0 6 1 2-1 1 237-1 20-4 23-7 19-6 12h-2v3h-2v3h-2l-1 4-2 1-3 6h-3l-8 8-13 9-5 2h-14l-3-2 1-5 13-7 15-11 4-2 1-3h2l2-5h2l2-5 6-9 4-11 3-14 2-15v-29l-2-30v-10l-2-36-1-29-1-11v-15l-1-17v-20l-1-13 1-11v-11l1-10 7-12 5-3z" fill="#3F3F40"/>
<path transform="translate(1013,851)" d="m0 0h11v19l-13-1-7 1-16 1-4-2-8 3-9-1-6-1-4 2-3-1-9 1v-2l-2 1h-12l-6 2-3-1v-2l-8 2-3-1v2h-29l-7 1-2 1-11 1-2 1h-18l-2 1-24-3-17-1-4-1-1 1-13 1v-2l-11 1-1 1h-5-3-8l-4 1h-9l-1-1-5 2h-5l-4 2v-2h-7-3l-1 2-3-1h-1l-4 1-3 1-1 3h-8l-19-4-66-12-13-3-26-5 2-2 9 2 15 2h21l6 1 1-2v2h20l19-1 4 1 17 1 1-2h7l6 1h18l4-1 5 1h53l12 2h15l8-3 9 2 1-2v2l7-2h8l16-2h3l3 1 5-3 3 1 8 1 1-2h9l1-1h18l5 1h13 1l1 2 7-1h14l4 1 7-1h9 3l13-1 5 1 4-3v3h10l3-1 2 1h12l-5-5z" fill="#89898B"/>
<path transform="translate(505,658)" d="m0 0h28v2h30l12 7 6 4 3 1v2l8 2v2l24 8v1l-38 2-5 1-4 2h25l41 1h48l77-1 4-1-21-2v-1h20l21 2 3 3-24 1-47 1-97 1h-76l-12-1-40-1-37 1-31 1h-115l2-2h47l87-1 17-1h12l4-1 2 1v-2l-10-1-4-3h3v-2h-44l-2 1v-2l-6 1h-10v-2l17-9 4-3h3v-2h3l1-3 4-3 5 2 8-1h28l30-2h-7z" fill="#6A6A6C"/>
<path transform="translate(53,884)" d="m0 0h11l14 1 7 2 4 5 1 7-4 10-8 11-14 15-13 12-17 11-14 7-9 3-11 1v-65l23-12 20-6z" fill="#505051"/>
<path transform="translate(205,667)" d="m0 0 11 1 6 1 4-1 12 1 2 1h27l-6-1v-1l10-1 2 1v2l5 2 10 5v4 2l5 1-3 3-17 1-25 1v2l6 1 26 1v1l-13 1h-16l-8-1h-18l-4 1-61-1-10-1-1 2-4-1-2 1v-2l-3 2-17 1-8 2-23 2-13-1-3-4v-2h9l1-1 7-1 3-1h9l9 2 5-1h9l-1-2 11-2 12-1 1-3-12-1v2l4 1-7 1-2-1h-39l-2 2-4-1 1-2-5 2h-16l-2-2 18-8 4-2 30-2 5-1 1 1h21l11 1v-1l9 1v-2l6 1 13-1 6-1 1 2 4-1 6-2h2v2l3-2z" fill="#7D7E7F"/>
<path transform="translate(559,518)" d="m0 0 5 5 12 1 3 1 22 1 22 2 32 2 60 5 28 3 18 3 8 2v3l-9 2-23 2-40 2-32 1-41 1h-59l-4-15-2-11z" fill="#5C5D5E"/>
<path transform="translate(1e3 851)" d="m0 0h9l3 4v2l3 1v1h-13l-4-1-3 1-8-1h-1l-7 1-4-1-10 1h-3-13l-3 1h-5l-4-1h-19v-1h-13-4v-2l-3 1h-15l-5 1h-5l-5 2-6-1h-2l-5 2-5-1-17 2h-7l-11 1-6-1-9 3h-14l-12-2h-55l-5-1-3 1h-18l-11-1-2 1h-17l-9-1-14 1h-18l-3-1h-16l-17-2 2-4h6l1-3h5l-2 4 3-1 1-3 2-1z" fill="#414142"/>
<path transform="translate(894,656)" d="m0 0 3 2-3 3 9-1 6 2 14 7 12 5 3 2-2 2-13 1-9-1 4-2h-5v1h-7l-1-2-26-2h-12l-10-1-6 1-9-3-1 1h-9l-7 1h-8l-7 1-28-1v2l-6 2v1h-9v2h2v2h-3l2 1v3l9 1v1l11 1 8 2 1 4-2 1-44 1h-32l-5 2h-2l-15 1h-3l-25-1h-15v-2h-26v-1l88-1 47-1 23-1-9-2-14-1-46-1-6-1 3-2 9-3 15-7 12-7 8-5 2-3h58l18 2 1-2 6 1h19l2 1 1-2v2l5-1h13l5-2 3 1 1 1v-3h2z" fill="#88888A"/>
<path transform="translate(983,868)" d="m0 0 6 2 20-1 6-1 8 1 1 1v8h-4l-1 2-7-2 1 2-18 1-4-1h-10l-2-1h-12l-8-1h-14l-9 1-6-1-11 3-15 1v2l-10 1h-12l-14 1v-2l-5 1-3-1h-10l-4-1-9-2-9 1-15-1h-9l-7 2h-7-1l-11 1-4-1-7 1-1 3-5-2-8 1-6-2v2l-4 1-1 3 3 2-9-1-19-4-18-3 4-4-2-1 5-1h3l-2-2 6 1h1l3-2 5 1h5v2l4-2 10-2v1h8l3 1 1-2h8 3 5l5-1h7l1 1h12l1-2 15 2 16 1 14 2 2-1h18l2-1 10-1 3-1 11-1h3 20l2 1v-2l11-1v2l7-1 4-1h12l1 1 10-1 3 1 2-2 13 1h3 6z" fill="#98999A"/>
<path transform="translate(224,693)" d="m0 0h20l14 1h52l1 1h123l28-1 32-1 37 1 13 1h75l-3 2h-15l-16 2h-16l-3-1-1 1-14 1h-7l-4 2h-4-9l-10 1h-11l-5-1-4 1h-4l-1 1h-23l-2-1h-8l-4-2-7-1h-6l-1-2h-5l-2 1-14-1-12-1-4 1-7-1v2h-9l-3-1-3 1v-2l-8 1-7 1v2l-3-1 1-2-6 1-2-1v2h5v1h-17l-5 1h-7l-7 1h-19v1h-11l-10-1 3 4-9 1-2-3h-7l-3 1-6 1-2 2-9 1-7-2h-3-9l-4-1-1 2-1-1h-7l-6-1v-2l-12-1 3-2h9l3-1-7-1 4-2 1-2 5 1 2-2h3z" fill="#7D7E7F"/>
<path transform="translate(423,304)" d="m0 0h55l4 4v98l-1 14h-1l-1-29-1-83-1-1h-54l-1 3-1 265-4 20h-2l-1 2 1-8 3-13v-26l-1 1h-31l-42-3-11-1-5-2 1-2 27-5 43-6h15l4 2 1-226z" fill="#5D5E5F"/>
<path transform="translate(205,667)" d="m0 0 11 1 6 1 4-1 12 1 2 1h27l-6-1v-1l10-1 2 1v2l5 2 10 5v4 2l5 1-3 3-17 1-25 1v2l6 1 26 1v1l-13 1h-16l-8-1h-18l-25-1h-8v-2l4-1 28-1 16-1 5-2-2-2-11-2-5 1h-11l-7-1-13-1v-1h-21-3l-3 1h-24l-3-1-1-3-18-2-3 1h-8v-1l-11-1v-1l18-1 5-1 1 1h21l11 1v-1l9 1v-2l6 1 13-1 6-1 1 2 4-1 6-2h2v2l3-2z" fill="#696A6B"/>
<path transform="translate(990,855)" d="m0 0 1 3h10l3-1 2 1h12l-2-2 4 1 3 3v2h-22l-17 1h-47l-16-1-8 1-5 1h-15-3l-46 2-10 1h-7l-2 2h-23l-19-2-16-1h-10l-16 1h-11l-2 1-8-1-7 1h-27l-10 1-3-1h-5l-1 1h-12-3l-4-1-9 1h-18l-12-2-13-3-26-5 2-2 9 2 15 2h21l6 1 1-2v2h20l19-1 4 1 17 1 1-2h7l6 1h18l4-1 5 1h53l12 2h15l8-3 9 2 1-2v2l7-2h8l16-2h3l3 1 5-3 3 1 8 1 1-2h9l1-1h18l5 1h13 1l1 2 7-1h14l4 1 7-1h9 3l13-1 5 1z" fill="#6A6A6C"/>
<path transform="translate(423,701)" d="m0 0 4 1h12v2l-5 1 21 1 2 2-8 1-5-1h-1l-1 3-2 1 7 1-2 3h-190l-10-2-3-2h9l-7-2-1-2 12 1h9l1-2 14 2-1 2 3 1v-2l7-1h8l7-2 1 2 3-1 4 1 4-2 4 1 1-1 12 1 1-2v2l5-3 2 1v2l6-1h4v-2l6-1 20-1h25l13-1 5 1z" fill="#98999A"/>
<path transform="translate(647,303)" d="m0 0h35l19 3 27 9 19 10 13 9 11 9 16 16 11 14-1 2-5 4-11 7h-3v2l-6 3-7 4-8 4h-2v-2l5-1v-2l7-2v-2h3v-2l9-3v-2l5-1v-2h3v-2l6-2-8-11-14-15-13-11-15-10-15-8-20-7-16-4-21-2-23 1-19 3-20 6-18 8-17 10-13 10-12 11-10 11-5 5-9 14-7 12-6 14-8 24-4 22-2 21v37l2 18v7l-2-4-2-16-1-14v-26l2-23 4-20 5-18 8-19 9-17 9-14 11-13 9-10 10-9 18-13 10-6 3-2 7-2 12-5 17-5z" fill="#808082"/>
<path transform="translate(434,681)" d="m0 0h24v2l14-1 29 2 6 1v-1h10l-1 2 4 1h51l6-1v-2l3-1h8l5 3v-1h21l2 2-38 2-5 1-4 2h25l41 1h48l77-1 4-1-21-2v-1h20l21 2 3 3-24 1-47 1-97 1h-76l-12-1-40-1-37 1-31 1h-115l2-2h47l87-1 17-1h12l4-1 2 1v-2l-10-1-4-3h3v-2h-13l-21-1z" fill="#5D5E5F"/>
<path transform="translate(796,690)" d="m0 0 7 1 1 2-7 2v2l2 1-6 2h-10l-14-1h-17l-9-1-6 1-4-1-6 3h-16v2l-3-1-1-1-7 1-11-1-1 2h-18l-2 1-18 1-4 1-8-1-18-1-6 1h-12l-7-1v2l-2 1-9 1-1 1h-22l-2 2h-7l-4 2-8 1-1 1-18 1h-32l4-2-1-2 9-1 8-3 8-1 1-2 9-1h11l3 1v-2h9l4-1-2 1 4 1 2-1h10l2-1 14-1h19l-1-3h19l5 1 3-1 17-1h32l15 1 2-1 3 1 14-1 5-1 7-1h37l36-1z" fill="#999A9B"/>
<path transform="translate(1e3 861)" d="m0 0m-84 0 25 1h39l17-1 3 1 1 4-10-1-2-1v2h-21l-3 1-7-1-6 1-18-1h-12l-10 1-2-1-1 2-7-1-3 1-4-1-4 1h-12l-12 1h-11l-3 1h-14l-14 3-37-1-10-2h-26l-4 1h-9l-6 1h-14-3-10l-5 1-13-1-7 1-4 1h-9l-11 1-5 1-31-6-2-2h21l4-1h4l4 1 10 1 1-2h7l1 1 16-1h23l9-1 5 1 3-1h17l13-1h12l20 2 16 1h15l4-2h11l4-1 30-1 17-1h2 16l3 1 1-2z" fill="#7C7D7E"/>
<path transform="translate(842,669)" d="m0 0 9 3 8-1 8 1h16l22 2 2 2h5v-1h6l3 3h8l7-1 3-1 25 11 2 4-6-1h-12l4-2-11-1-37-1-10-1v-2h36l-13-3h-8l-13-2h-30v1l-6 1h-15l-4 1-4-2h-8l-3 2h-9l-3-2-5 1-4-1-1 3-5 1-1 3h-4l2 2v2l-8-1-13-1-1-2-6-1v-3h-6l4-2 3 1v-2h-2v-2l8-1 3-2h4v-2h31l7-1h10l4-1h7z" fill="#999A9B"/>
<path transform="translate(736,577)" d="m0 0 5 1 10 7 1 2-6-1-9 13-12 13-11 9-10 6-12 5-18 4h-22l-17-4-12-5 1-2-4-2 2-1 16 5 6 1h21l17-4 19-9 13-10 8-8 11-15z" fill="#6A6A6C"/>
<path transform="translate(288,678)" d="m0 0 6 2 14 6v2l-6 1h3v2l10 1h102l12-1-4-2-29-2 2-2 5-2h52l13 1-1 3 12 3v2l-7 1h-11l-17 1-88 1-76-1-26-1-8-1 2-1v-2l25-2 16-1 2-2-3-1v-2l-4-1z" fill="#404041"/>
<path transform="translate(479,513)" d="m0 0h1l1 27v21l-1 21-4 20-6 17-7 14-11 16-10 11-8 6-1 2h-3v2l-9 5-15 8-8 3 27 2 5 2-1 2-12 1h-102l-11-1 1-3-4 1-1-2h8v-2l-5-1-24-11-6-4v-2l-4-2-11-9-10-10 1-2 13 13 15 11 16 9 18 7 11 3 15 2h31l20-4 15-5 16-8 14-9 11-10 9-11 9-14 7-15 5-16 2-10 1-16 1-4z" fill="#1B1A1B"/>
<path transform="translate(553,649)" d="m0 0 4 2 15 12 13 8 19 9 22 7 18 3 11 1h19l22-3 21-6 9-3v2l-8 4-4 1 3 1 41 2 9 2v1l-7 1-77 1h-48l-66-2 1-2 1-1 7-1 36-2-15-5-7-3v-2l-6-1-2-1v-2l-5-1-14-9-12-12z" fill="#1B1A1B"/>
<path transform="translate(571,857)" d="m0 0 7 1 17 3h22l6 1 1-2v2h20l19-1 4 1 17 1 1-2h7l6 1h18l4-1 5 1h53l12 2h14l1 2-21 1-17-1h-10l-16 1h-11l-2 1-8-1-7 1h-27l-10 1-3-1h-5l-1 1h-12-3l-4-1-9 1h-18l-12-2-13-3-26-5z" fill="#666668"/>
<path transform="translate(423,304)" d="m0 0h55l4 4v98l-1 14h-1l-1-29-1-83-1-1h-54l-1 3-1 259h-1l-1-54v-207z" fill="#939495"/>
<path transform="translate(282,675)" d="m0 0 6 2v4 2l5 1-3 3-17 1-25 1v2l6 1 26 1v1l-13 1h-16l-8-1h-18l-25-1h-8v-2l4-1 28-1 16-1 5-2-2-2-10-2v-2l-6 1-2-2h-6v-2l9-1h50z" fill="#616263"/>
<path transform="translate(242,716)" d="m0 0h782v1l-319 1-440-1v2l-23-2z" fill="#838385"/>
<path transform="translate(792,622)" d="m0 0h3l-2 4-2 2-2 5-6 5-3 5-12 12-8 6-4 4-11 7-17 9h-2v-2l-12 5-18 5-22 3h-19l-24-3-21-6-17-7-15-8v-3l5 2 23 11 15 5 19 4 9 1h30l24-4 17-6 21-10 14-9 11-9 18-18z" fill="#3F3F40"/>
<path transform="translate(290,571)" d="m0 0h1l1 11-1 8h2l2 3-2-10 2-2 7 12 2 4h-2l3 5 3 4 4-1v2l3 1v6l1-3 4 2v5l7 6 5 2 1 2 13 5h16l16-2-3 2-11 2h-20l-14-3-12-5-3-3h3l-7-4-1-3-1 3-4-2-10-9-1-3-2-1-1-4 1-3-2-2-1-3-4-4-2-6 5-5z" fill="#545455"/>
<path transform="translate(415,405)" d="m0 0 2 2-1 10h-2v10l-3 3-5 3-3 5-4 2 1 7 6 1 2 5-2 3h5l-1 6h-2v2l7 5v8l-1-2h-8l-2-1v-6l-2-4-4-1v5l-6 2-2 8h-2l-1 4h-5l-4 3h-2v2l-5 1 5-6h2l1-4 7-3 2-7 4-4 1-5 1-2h2v-2h2l-1-4v-7l-5-2 1-7 5-5 4-2 1-3-3-1 2-2 2 1v2l3-1 4-8 2-2-1-3 2-5z" fill="#515152"/>
<path transform="translate(482,509)" d="m0 0 1 3 9-2 2-1 1 9 3 25 2 10v4l-18 1-1-8v-39z" fill="#5C5D5E"/>
<path transform="translate(89,674)" d="m0 0h26 1 11l14 2 2 2-1 2 5 1v2l-8-1v2l4 1-7 1-2-1h-39l-2 2-4-1 1-2-5 2h-16l-2-2 18-8z" fill="#7C7D7E"/>
<path transform="translate(894,656)" d="m0 0 3 2-3 3 9-1 6 2 14 7 7 3v1h-23l-19-1-16-2-3-1v-2l-9 1-3-2h-7l-4-2-10-2 1-2 6 1h19l2 1 1-2v2l5-1h13l5-2 3 1 1 1v-3h2z" fill="#6A6A6C"/>
<path transform="translate(580,683)" d="m0 0h8l5 3v-1h21l2 2-38 2-5 1-4 2h25l41 1v1h-100l-36-1-8-2v-1l5-1 18-1 57-1 6-1v-2z" fill="#404041"/>
<path transform="translate(651,358)" d="m0 0h29l19 5 17 8 13 9 10 9 10 10h6l-2 3-6-1-7-8-11-10-15-10-18-8-11-3-6-1h-28l-16 4-12 5-13 7-6 4-1 2-5 3-10 10-10 14-10 19-6 18-5 25-1 9v36l3 24v5l-2-4-3-19-1-12v-27l2-18 6-25 8-20 8-14 10-13 12-12 14-10 16-8 7-3z" fill="#757677"/>
<path transform="translate(62,705)" d="m0 0 2 1h7l-1 2 12 1v2l2-2h5l4 2h21l11 2v1l-6 1 7 1v1h-92v-1l6-1 4-1v-2l-2-1 5-2h5l-1-2 3-1h7z" fill="#7A7A7C"/>
<path transform="translate(269,667)" d="m0 0 4 1v2l5 2 4 4-5 1h-58l4 1 5 1 1 1 4 1-6 2h-11l-7-1-13-1v-1l-6-1 2-5 19-1h19l14-2 23-1-6-1v-1z" fill="#6C6C6E"/>
<path transform="translate(760,660)" d="m0 0h58l29 3 3 2h7l4 2h8v2l14 1 5 1 45 2 5 2-2 3-13 1-9-1 4-2h-5v1h-7l-1-2-22-2-3-1-15-1-17-3h-5v-2h-23l-21-1-8-2h-5v1l-27-1z" fill="#7D7E7F"/>
<path transform="translate(438,662)" d="m0 0 5 2 8-1 10 1v1l-6 1-1 2-4 1-6-1v2h7l5 1-4 2 13 1v2l-15 1-5 2-15 1-2 1 5 1-3 2h-6l-2 1v-2l-6 1h-10v-2l17-9 4-3h3v-2h3l1-3z" fill="#5D5E5F"/>
<path transform="translate(610,312)" d="m0 0 3 1-15 6-11 6-1 2-8 4-12 9-14 12-7 7-9 11-10 15-8 14-6 14-8 24-4 22-2 21v37l2 18v7l-2-4-2-16-1-14v-26l2-23 4-20 5-18 8-19 9-17 9-14 11-13 9-10 10-9 18-13 10-6 3-2 7-2z" fill="#727274"/>
<path transform="translate(571,857)" d="m0 0 7 1 17 3h22l6 1 1-2v2h20l19-1 4 1v2h11l3 3v2h-5l-3-1h-5l-1 1h-12-3l-4-1-9 1h-18l-12-2-13-3-26-5z" fill="#6B6B6D"/>
<path transform="translate(374,707)" d="m0 0 11 1 3 2 1 4 10 1v1h-107v-1l20-1 9-1 19-1 8-1 4-3h18z" fill="#ABABAC"/>
<path transform="translate(743,688)" d="m0 0h20l21 2 3 3-24 1-47 1-97 1h-76l-12-1-37-1v-1h189l77-1 4-1-21-2z" fill="#646466"/>
<path transform="translate(282,675)" d="m0 0 6 2v4 2l5 1-3 3-17 1h-11l1-2 13-2h-18l3-2 1-1h-6l-6-1-11 1h-4-8l-2-2h-6v-2l9-1h50z" fill="#5A5A5B"/>
<path transform="translate(763,688)" d="m0 0h25l8 2 1 4-2 1-44 1h-32l-5 2h-2l-15 1h-3l-25-1h-15v-2h-26v-1l88-1 47-1 23-1-9-2-14-1z" fill="#838385"/>
<path transform="translate(396,485)" d="m0 0 7 1 2 1 6 1 4 4v3h2v3h-2l-3-3-10-2-5-2-5 4-11 2-7 5-8 2h-7l-6 4-8 5-5 3-12 2-4 1-14 5-4 1h-8v-1l12-3 13-5 9-3 11-3h4v-2h2l2-4 15-5 6-1 7-2v-2l7-2h2l1-2h2l1-3z" fill="#515152"/>
<path transform="translate(423,304)" d="m0 0h55l4 4v98l-1 14h-1l-1-29-1-83-1-1h-54l-2 3-1-4z" fill="#8F8F90"/>
<path transform="translate(131,655)" d="m0 0 1 2 12-1h9l2 2v1h15v-1h6v3h3l-1-3h2v2h18v2l-12 2-8 1-4-1-2-1-1 2h-18l-15 1-22-1-2-1 4-2h9l3-1-4-1 1-3z" fill="#5C5D5E"/>
<path transform="translate(608,852)" d="m0 0h30l3 7-1 3-2-1-4 1-3-2 1 1-2 2-13-1h-10l-17-2 2-4h6l1-3h5l-2 4 3-1 1-3z" fill="#424243"/>
<path transform="translate(25,703)" d="m0 0 4 1h6l-2 2 9 1 2 2v3 2l-2 2-13 1h-29v-3z" fill="#858587"/>
<path transform="translate(479,513)" d="m0 0h1l1 27v21l-1 21-4 20-6 17-7 14-11 16-10 11-8 6-1 2h-3v2l-9 5-15 8-5 2-3-1 5-3 16-8 14-9 11-10 9-11 9-14 7-15 5-16 2-10 1-16 1-4z" fill="#1B1A1B"/>
<path transform="translate(764,399)" d="m0 0 3 1 4 6 2 1v2h2l-1 3-4 7-1 8-4-4-3-6-3-3-3 1v4h3l1 4-3 3-4 1-2-3-3-1v-2h-3v-2h-2l-2-3 1-5 2 4v3h6l4-4 3-5-4 1v-3l8-4z" fill="#515152"/>
<path transform="translate(32,917)" d="m0 0h5l7 2 1 3h-2l-2 7-5 5-7 5h-6l-2-2-2-5 1-5 4-2 2-5z" fill="#404041"/>
<path transform="translate(937,676)" d="m0 0 9 3 18 8 2 4-6-1h-12l4-2-11-1-37-1-10-1v-2h36l-7-2-2-2 3-1 12-1z" fill="#979899"/>
<path transform="translate(405,338)" d="m0 0 2 1-1 8 4 2 2 4-2 4-3 1v3h-2v5h-6l-1-3v7l-4 3 1 5 4-1 2 4-1 2-9 1v-6l-3-5 1-3 3-1 2-8 4-2 1-3h2l2-13z" fill="#515152"/>
<path transform="translate(490,278)" d="m0 0 4 1 2 1 14-1-2 1-1 5-3 1-5-3v3l-5 3-10-1h-12l-2-1-1 3-4-2h-12v-3l2-1h11l1-2h10 3l7-1z" fill="#525253"/>
<path transform="translate(734,677)" d="m0 0h19l9 2v1l-11 1-3 5h-9v2h-22l-6-1 3-2 9-3z" fill="#7C7D7E"/>
<path transform="translate(415,405)" d="m0 0 2 2-1 10h-2v10l-3 3-5 3-3 5-4 2 1 6-2 2-1-4-5-2 1-7 5-5 4-2 1-3-3-1 2-2 2 1v2l3-1 4-8 2-2-1-3 2-5z" fill="#505051"/>
<path transform="translate(461,692)" d="m0 0h31l-1 2-37 1-31 1h-115l2-2h47l87-1z" fill="#666668"/>
<path transform="translate(680,440)" d="m0 0 2 1-1 2 1 3-1 6 2 2-1 5v10l2 1-1 4 1 2 4 2v2l4 2 3 6h2l3 3v2l5 2-2 1-7-4-8-7v-2l-4-2-3-1-3-8v-6l-2-1-2-4 1-6v-4-5l3-1z" fill="#515152"/>
<path transform="translate(759,337)" d="m0 0 5 2 12 11 10 10 10 13-1 4-11 7-3 2h-3v2l-6 3-7 4-8 4h-2v-2l5-1v-2l7-2v-2h3v-2l9-3v-2l5-1v-2h3v-2l6-2-8-11-14-15-13-11z" fill="#424243"/>
<path transform="translate(205,667)" d="m0 0 11 1 6 1 4-1 12 1 6 3-17 2h-18l-19 1-20-1 2-2 13-1 6-1 1 2 4-1 6-2h2v2l3-2z" fill="#5B5C5D"/>
<path transform="translate(649,458)" d="m0 0 1 2-1 4 3 1-1 6v2l4 6 2 4 4 1h2l4 1 6 6 1 2 8 1v3l-12-2-3-3-5-2-6-3-5-2 1-5-4-2-4-1 2-5 1-4-3-2-1-4 5-1z" fill="#515152"/>
<path transform="translate(894,656)" d="m0 0 3 2-3 3 9-1 6 2 14 7 7 3v1l-14-1-9-1-3-3 5-1-8-1v-2l-50-1 3-2h8l2 1 1-2v2l5-1h13l5-2 3 1 1 1v-3h2z" fill="#616162"/>
<path transform="translate(477,553)" d="m0 0h1v19l-1 16-5 21-7 16-6 11-9 12-4 4-2-1 1-2h2l2-6 3-2 1-3h2v-3h2v-3h2l2-6 7-16 4-13 3-19 1-20z" fill="#5E5E5F"/>
<path transform="translate(684,861)" d="m0 0h8l6 1h18l4 3v2l-7 1h-32l-3-3-11-1v-1h17z" fill="#6A6A6C"/>
<path transform="translate(94,690)" d="m0 0 8 1v3l15 1-2 1v2l-23 2-13-1-3-4v-2h9l1-1 7-1z" fill="#7F8081"/>
<path transform="translate(238,679)" d="m0 0 7 1 5-1 16 2-3 2h13l1 2-14 2-7 2-15 1-1-2 5-2-2-2-10-2 2-2z" fill="#6A6A6C"/>
<path transform="translate(193,708)" d="m0 0 1 2 4-2 4 1 1 3h3l1-2 3 1 3 2 2 2-16 1v1l-70 1 1-2 40-1v-1l22-1 3-1-7-2v-1z" fill="#797A7B"/>
<path transform="translate(990,855)" d="m0 0 1 3h10l3-1 2 1h12l-2-2 4 1 3 3v2h-22l-17 1h-31l-1-2 5-1 27-1 5-2z" fill="#6B6B6D"/>
<path transform="translate(610,312)" d="m0 0 3 1-15 6-11 6-1 2-8 4-12 9-14 12-7 7-9 11-3 4h-2l2-4 9-11 11-12 8-7 13-10 13-8 6-4 7-2z" fill="#676769"/>
<path transform="translate(687,364)" d="m0 0 8 1 8 2 16 8 12 9 10 9 6 6 1 5 2 1-4-1-12-13-14-11-14-8-19-7z" fill="#2C2B2C"/>
<path transform="translate(656,358)" d="m0 0h24l19 5 17 8 13 9 10 9 10 10h6l-2 3-6-1-7-8-11-10-15-10-18-8-11-3-12-2-17-1z" fill="#8A8B8C"/>
<path transform="translate(950,692)" d="m0 0 27 1 2 1v2l-22 1h-23l-11-1-1-2z" fill="#98999A"/>
<path transform="translate(743,688)" d="m0 0h20l21 2 3 3-24 1h-80v-1l77-1 4-1-21-2z" fill="#404041"/>
<path transform="translate(414,382)" d="m0 0 2 1v6h2v7l-2-1h-2-3l-1 2-3 1h5v3h2v2l-8 4-4-1-7-4-1-4 2-4h2l1-2v4l1 4 5-5 8-3 1-4z" fill="#515152"/>
<path transform="translate(337,427)" d="m0 0 2 1 6 13h-4l-1 2h-2l-2 5-4 1v3l-6 3-2-1 6-4-1-3-6 1 2-5 8-4 4-5z" fill="#515152"/>
<path transform="translate(269,667)" d="m0 0 4 1v2l5 2 4 4-5 1h-29l4-3-1-1-7-1v-1l23-1-6-1v-1z" fill="#69696B"/>
<path transform="translate(493,546)" d="m0 0 5 1 2 6v4l-18 1-1-8h2l1-3z" fill="#5C5D5E"/>
<path transform="translate(651,358)" d="m0 0 22 1v1l-22 1-16 4-12 5-13 7-6 4-1 2-5 3-10 10-5 7-1-3 11-12 11-10 13-8 14-7 5-2z" fill="#6A6B6C"/>
<path transform="translate(642,368)" d="m0 0h14v9h2v8l2 1-6 2-1-4 3-1-1-5-5-2v-3l-2-1v2l-7 2-4 2-5-5v-2l5-1 4-1z" fill="#505051"/>
<path transform="translate(418,310)" d="m0 0h1v19l-3 1 1 5v3 1h1v9h-1l-1-5-3-3-1-4 1-4-1-1-1 5-4 2v-5l2-6 2-4 3-2 1-5 2-1z" fill="#444445"/>
<path transform="translate(724,437)" d="m0 0 3 3v5h2l1 6-1 5h3v2l2 1-1 1 5 2 1 1v10l5 5 3 2 1 4h-2l-2-3-5-3-2-4h-2l1-9-7-1-3-7-2-6 1-6-2-7z" fill="#525253"/>
<path transform="translate(917,857)" d="m0 0h6 1l1 2 7-1h14l4 1 7-1h9 3l13-1 2 3-27 1-8 2h-12l-11-1v-2l-9-1z" fill="#6A6A6C"/>
<path transform="translate(360,501)" d="m0 0m-3 1 3 1-7 5-8 5-5 3-12 2-4 1-14 5-4 1h-8v-1l12-3 13-5 9-3 11-3h4v-2h2l2-4z" fill="#525253"/>
<path transform="translate(421,674)" d="m0 0 5 1 4-1h8l5 1-2 2h-12l-5 1 1 2 7 1 1 2-9 1-2 1v-2l-6 1h-10v-2z" fill="#5A5B5C"/>
<path transform="translate(505,658)" d="m0 0h28v2h22l-1 2-13 1h-22l-6 1-9-1v-1l5-1h-7z" fill="#5C5D5E"/>
<path transform="translate(538,252)" d="m0 0 16 1v1l-14 1-5 2-7 2-10-2-3 2h-15l-6 2-12 1 2-2 12-3 11-1 14-2 7 1z" fill="#525253"/>
<path transform="translate(530,374)" d="m0 0h2l-2 5-8 13-8 16-7 19-7 28h-1v-8l7-26 8-19 9-17z" fill="#7C7D7E"/>
<path transform="translate(887,856)" d="m0 0h18l5 1h4v2l-14 2h-9l-5 1-13-2 3-1 1-2h9z" fill="#5B5C5D"/>
<path transform="translate(760,660)" d="m0 0h58l7 1v1h-20v2h-10l-9-1v1l-27-1z" fill="#606162"/>
<path transform="translate(174,534)" d="m0 0h5l-2 2-13 4-10 5-3 1v2l7 2-4 2-6-2-5-1 2-6 2-2 11-2 4-2z" fill="#525253"/>
<path transform="translate(628,695)" d="m0 0h62l-2 1-1 3-17-1h-16v-2h-26z" fill="#828384"/>
<path transform="translate(1013,851)" d="m0 0h11v13l-9 2h-3v-2l-4 1-3-1 1-3h15l2 1-4-5-5-3z" fill="#7E7F80"/>
<path transform="translate(479,513)" d="m0 0h1l1 27v21l-1 21-1 6h-2v-16l1-4z" fill="#1B1A1B"/>
<path transform="translate(636,853)" d="m0 0 4 2 1 6-2 1h-1l-5-1h-1l-2 2-10-1-1-3 3-3 4-1 4 1z" fill="#4B4B4C"/>
<path transform="translate(143,705)" d="m0 0 5 1 3-1 5 1 6-1v2l-4 1h-7l-6 2-1-1h-7l-5 1h-21l-1-3 9-1 8 1 3-1 1 1z" fill="#7D7E7F"/>
<path transform="translate(781,639)" d="m0 0v3l-13 13-8 6-4 4-11 7-13 7-4-1 20-11 14-10 16-15z" fill="#252425"/>
<path transform="translate(292,599)" d="m0 0 4 2 2 4 4 2 2 2h3l1 2h-2l3 9-4-2-10-9-1-3-2-1-1-4z" fill="#4C4C4D"/>
<path transform="translate(495,538)" d="m0 0h2l1 9-14 1-2 2v-11l5 1z" fill="#6A6A6C"/>
<path transform="translate(523,292)" d="m0 0 1 4 3 5-3 3-7 1-4-1-6 2-4-2 2-1 1-2 1 1 4-5 5 1v2l7-1-2-5z" fill="#515152"/>
<path transform="translate(264,707)" d="m0 0 15 2-4 3-9 3-9-1v-2l-9-1-5-2 2-1 10 1h9z" fill="#8C8C8E"/>
<path transform="translate(234,672)" d="m0 0h20l1 4h-36l-2-2 13-1z" fill="#7C7D7E"/>
<path transform="translate(553,649)" d="m0 0 4 2 15 12 13 8 17 8 1 3-9-3-2-1v-2l-6-1-2-1v-2l-5-1-14-9-12-12z" fill="#1F1E1F"/>
<path transform="translate(914,858)" d="m0 0 12 2-1 2-12 1-5 1h-15l-2 1-1-3 6-2 11-1z" fill="#6B6B6D"/>
<path transform="translate(590,324)" d="m0 0 3 1-16 9-16 12-12 11-10 11v-3l14-15 10-9 15-11 5-3h3l1-2z" fill="#414142"/>
<path transform="translate(758,663)" d="m0 0h20v1h-13v2h14l13 1 3 2h-16l-23-1-2-3z" fill="#7D7E7F"/>
<path transform="translate(721,610)" d="m0 0h2v2h-2l-1 4-9 7-7 3-4-2 5-5 12-7h2z" fill="#5D5E5F"/>
<path transform="translate(423,306)" d="m0 0h54l2 3-57-1z" fill="#58595A"/>
<path transform="translate(228,676)" d="m0 0h20l6 2-1 2h-7l-5 1-3-1-9 1-2-1-5-1h-3v-2z" fill="#5D5E5F"/>
<path transform="translate(479,366)" d="m0 0 3 3v37l-1 14h-1l-1-29z" fill="#6E6F70"/>
<path transform="translate(636,631)" d="m0 0 17 2h11l13-1h9l-1 2-11 2h-22l-16-4z" fill="#797A7B"/>
<path transform="translate(419,515)" d="m0 0h1l1 60-4 20h-2l-1 2 1-8 3-13z" fill="#666668"/>
<path transform="translate(468,611)" d="m0 0h1v6l-10 19-9 12-4 4-2-1 1-2h2l2-6 3-2 1-3h2v-3h2v-3h2l2-6z" fill="#565657"/>
<path transform="translate(661,863)" d="m0 0 17 1 3 3v2h-5l-3-1h-5l-1 1h-12l-1-2 4-3z" fill="#6B6B6D"/>
<path transform="translate(571,857)" d="m0 0 7 1 17 3h22l6 1 1-2v2l15 1v1h-43l-26-5z" fill="#5D5E5F"/>
<path transform="translate(442,652)" d="m0 0h3l-2 4-11 10-13 8-4 2h-3v-2l15-9 13-11z" fill="#444445"/>
<path transform="translate(217,689)" d="m0 0h23v1l-17 2v1h-31v-2l4-1z" fill="#6B6B6D"/>
<path transform="translate(214,668)" d="m0 0 8 1 4-1 12 1 6 3-17 2-16-2z" fill="#616263"/>
<path transform="translate(821,855)" d="m0 0h2v3l5-1 5 1v-2h4v3h2l-1 3h-8l-11 1-4-3v-2l-4-2 5 1h2z" fill="#49494A"/>
<path transform="translate(742,411)" d="m0 0 2 4v3h6l2-2 3-1 1 4h3l1 4-3 3-4 1-2-3-3-1v-2h-3v-2h-2l-2-3z" fill="#525253"/>
<path transform="translate(905,674)" d="m0 0h26l7 1-2 3-13 1-9-1 4-2h-5v1h-7z" fill="#8A8A8C"/>
<path transform="translate(630,422)" d="m0 0 5 2 3 2 2-1v2h2v2h2l2 6 1 2h-5l-2-3-1-6-5 3-6-2-1-3 1-3z" fill="#515152"/>
<path transform="translate(479,309)" d="m0 0h1l1 24h1v36l-2 2-1-5z" fill="#8A8B8C"/>
<path transform="translate(184,538)" d="m0 0 1 2-8 4h-2l-2 5-7-1-5-2 2-3h8v-2l3-2z" fill="#525253"/>
<path transform="translate(880,663)" d="m0 0h21l1 2 8 1v1h-25l-10 1v-2l4-2z" fill="#7C7D7E"/>
<path transform="translate(193,708)" d="m0 0 1 2 4-2 4 1 1 3h3l1-2 3 1 3 2 2 2h-30v-1l10-2-7-2v-1z" fill="#7A7B7C"/>
<path transform="translate(732,320)" d="m0 0 6 2 14 8 8 6-1 2-4-1-14-9-11-6z" fill="#49494A"/>
<path transform="translate(793,375)" d="m0 0h2l-1 3-10 6-3 2h-3v2l-6 3-7 4-8 4h-2v-2l5-1v-2l7-2v-2h3v-2l9-3v-2l5-1v-2h3v-2z" fill="#656567"/>
<path transform="translate(763,688)" d="m0 0h25l6 3v3h-31v-1l23-1-9-2-14-1z" fill="#78787A"/>
<path transform="translate(599,853)" d="m0 0h5l-2 4h5l-1 3h3v-2h3v2l2 1-7 1-17-2 2-4h6z" fill="#4E4E4F"/>
<path transform="translate(894,683)" d="m0 0h21l32 2-1 2-42-1-10-1z" fill="#999A9B"/>
<path transform="translate(288,678)" d="m0 0 6 2 14 6v2h-8l-7-2v-2l-5-1v-2l-4-1z" fill="#444445"/>
<path transform="translate(724,681)" d="m0 0h9l5 1-1 2-16 1v2h18v1h-22l-6-1 3-2 9-3z" fill="#5E5E5F"/>
<path transform="translate(582,679)" d="m0 0h5v2h10l11 2 3 1v2h-17-3l-3-2-7-2z" fill="#5B5C5D"/>
<path transform="translate(693,376)" d="m0 0 6 3-1 3 3 1-3 5h-7l3 3 2 1-1 3v-2l-5-1-2-4 1-3 4-2 1-4z" fill="#505051"/>
<path transform="translate(478,306)" d="m0 0 4 2v25l-1 31h-1l-1-55z" fill="#ABABAC"/>
<path transform="translate(101,711)" d="m0 0h13l11 2v1l-9 1-12-1-3-1zm1 4h14l10 1v1h-17l-7-1z" fill="#808082"/>
<path transform="translate(616,696)" d="m0 0h38l-2 2h-12l-11 1-6 1-4-1-5-1z" fill="#89898B"/>
<path transform="translate(690,695)" d="m0 0h29l-4 3h-3l-15 1h-3-5l-1-3z" fill="#8A8A8C"/>
<path transform="translate(684,861)" d="m0 0h8l6 1h14l-2 2-11 1h-21l-11-1v-1h17z" fill="#5C5D5E"/>
<path transform="translate(653,305)" d="m0 0h27l3 3h-21l-21 1 4-2 8-1z" fill="#444445"/>
<path transform="translate(248,645)" d="m0 0 7 6 7 7 15 11 9 6-2 1-8-4-3-2v-2l-4-2-11-9-10-10z" fill="#1D1C1D"/>
<path transform="translate(270,704)" d="m0 0h9l2 4v4l-4-1v-1l-12-2-5 1 4-4h6z" fill="#89898B"/>
<path transform="translate(868,651)" d="m0 0h15l6 2-3 3h-2l-1 3-2-1v-3l-19-1v-2z" fill="#5D5E5F"/>
<path transform="translate(527,614)" d="m0 0h2l9 13 9 11v3l-8-7-10-13z" fill="#454546"/>
<path transform="translate(690,498)" d="m0 0 7 2v2l4 2 12 3 7 2 10 1v3l-17-3-14-4-9-6z" fill="#525253"/>
<path transform="translate(769,427)" d="m0 0 2 2 5 6-2 4 1 4-2 1-2-2h-3l-1-6 1-4v-3z" fill="#515152"/>
<path transform="translate(916,666)" d="m0 0 9 4 5 2v1l-14-1-9-1-3-3z" fill="#5C5D5E"/>
<path transform="translate(479,294)" d="m0 0 5 2 2 5-2 4-2-2-1-2-3 1-9-1 1-2 7-3z" fill="#515152"/>
<path transform="translate(314,480)" d="m0 0 2 1-1 5-5 8-8 6 1-5 4-3h2l-1-6 2-3 3-1z" fill="#525253"/>
<path transform="translate(282,473)" d="m0 0 2 1-3 6v7l-4 7-7 4-2-1 5-6 2-1 4-15z" fill="#525253"/>
<path transform="translate(865,857)" d="m0 0 3 1 4 2-6 2-6 1h-21l-1-2 16-2h3l3 1z" fill="#5C5C5D"/>
<path transform="translate(421,674)" d="m0 0 5 1 4-1h8l5 1-2 2h-12l-7 2h-8l4-3z" fill="#404041"/>
<path transform="translate(705,496)" d="m0 0h5l6 3 7 3 12 3 1 2-16-2-3-1v-2l-7-2z" fill="#525253"/>
<path transform="translate(650,436)" d="m0 0 5 1v8h-2v2l-6 3-3-1 3-4-2-1 1-2h4z" fill="#515152"/>
<path transform="translate(555,346)" d="m0 0 2 1-12 12-9 11-3 4h-2l2-4 9-11 11-12z" fill="#676769"/>
<path transform="translate(461,692)" d="m0 0h31l-1 2-35 1-12-1v-1z" fill="#656667"/>
<path transform="translate(649,857)" d="m0 0h14l4 5h-17z" fill="#474748"/>
<path transform="translate(337,500)" d="m0 0h2v2l-16 7-6 3h-2l-1 3-5 2-1-2 11-7 7-4 6-3z" fill="#525253"/>
<path transform="translate(599,390)" d="m0 0h6l2 4-4 1h-3l-1 4-4 2v-2h-2l2-4 2-3h2z" fill="#505051"/>
<path transform="translate(390,332)" d="m0 0 3 1 2 6-4 7-7-5 4-4 2-1z" fill="#515152"/>
<path transform="translate(707,310)" d="m0 0 14 4 12 5-1 2-7-1-10-4v-2l-9-2z" fill="#555556"/>
<path transform="translate(154,692)" d="m0 0 15 3-3 2-9 1-11-2 4-1v-2z" fill="#919193"/>
<path transform="translate(697,394)" d="m0 0 5 1 2-1 2 4v4 2l2 1 1 5 2 1v2l-4-1v-2l-3 1v-5l-4-8-4-2z" fill="#525253"/>
<path transform="translate(654,368)" d="m0 0 2 1v8h2v8l2 1-6 2-1-4 3-1-1-5-5-2 1-5h2z" fill="#525253"/>
<path transform="translate(1016,856)" d="m0 0 4 1 3 3v2h-21v-2l-2-1 4-2 2 1h12z" fill="#646466"/>
<path transform="translate(570,680)" d="m0 0 7 1 3 3h-3l1 3-8 1-5-2v-2h3z" fill="#5C5D5E"/>
<path transform="translate(572,292)" d="m0 0 3 1v4h4v2l3-1 2 2-1 1h-8l-5-1-3-1v-3h3v-3z" fill="#505051"/>
<path transform="translate(452,646)" d="m0 0v3l-10 11-8 6-1 2h-3v2l-3-1 10-9 8-7z" fill="#1C1B1C"/>
<path transform="translate(190,652)" d="m0 0h24l-3 2h-9l-2 4-6-2v2h-6l3-2 4-2h-5z" fill="#515152"/>
<path transform="translate(514,279)" d="m0 0 9 2h9l2 2-14 1-5 1-1-2-5-1 1-2z" fill="#525253"/>
<path transform="translate(608,314)" d="m0 0h2v2l-8 5-7 3-8 2v-2l16-8z" fill="#575758"/>
<path transform="translate(435,707)" d="m0 0h9l12 3v1l-8 1-1 1h-7l-2-2h4l-1-2h-7z" fill="#8E8E90"/>
<path transform="translate(760,660)" d="m0 0 17 1 8 1 1 2-27-1z" fill="#676769"/>
<path transform="translate(634,444)" d="m0 0h8l2 2-5 5-7 1v-2h2l-1-4z" fill="#515152"/>
<path transform="translate(636,853)" d="m0 0 4 2 1 6-2 1h-1l-5-1-2-1 2-4z" fill="#4A4A4B"/>
<path transform="translate(242,716)" d="m0 0h45v1h-22v2l-23-2z" fill="#78797A"/>
<path transform="translate(405,611)" d="m0 0v3l-13 13-8 3-3-1 7-4 1-2 6-2z" fill="#626263"/>
<path transform="translate(728,380)" d="m0 0 6 4 15 15h6l-2 3-6-1-7-8-11-10-2-2z" fill="#7C7C7D"/>
<path transform="translate(264,707)" d="m0 0 5 1v3h-6l-2 1h-9l-9-3 2-1 10 1h9z" fill="#98999A"/>
<path transform="translate(29,704)" d="m0 0h6l-2 2 9 1 2 2h-20l-4-2z" fill="#7D7E7F"/>
<path transform="translate(579,668)" d="m0 0 24 12v2l-9-3-2-1v-2l-6-1-2-1v-2l-5-1-2-2z" fill="#272627"/>
<path transform="translate(590,324)" d="m0 0 3 1-16 9-8 6h-2l1-3 15-10h3l1-2z" fill="#404041"/>
<path transform="translate(967,857)" d="m0 0 6 1 9-1 2 3-31 1v-3h13z" fill="#5A5B5C"/>
<path transform="translate(383,356)" d="m0 0 2 1v6l-7 1-3 1-1 3 1-8 5-2h3z" fill="#515152"/>
<path transform="translate(649,458)" d="m0 0 1 2-1 4 3 1-1 6-4 1-1-5-2-1-1-4 5-1z" fill="#525253"/>
<path transform="translate(601,384)" d="m0 0 2 1-7 6-7 8-5 5-1-3 12-13z" fill="#2F2F30"/>
<path transform="translate(379,375)" d="m0 0 3 4 4 2-1 5-9 6-2 2 1-4 4-3h2l1-4-2-1-2-3z" fill="#525253"/>
<path transform="translate(242,712)" d="m0 0h9l10 1 6 2v1h-12l-10-2zm26 1 2 1z" fill="#999A9B"/>
<path transform="translate(507,684)" d="m0 0h10l-1 2 4 2-11 1-11-1v-1l9-1z" fill="#616163"/>
<path transform="translate(413,321)" d="m0 0 2 3h-2l-1 11-5 3v-5l2-6 2-4z" fill="#525253"/>
<path transform="translate(588,855)" d="m0 0h4v2l2 1-3 1 10 1v1l-6 1-14-2-2-2 9-1z" fill="#464647"/>
<path transform="translate(559,652)" d="m0 0 4 1 12 9 3 2v2l-4-1-12-9-3-2z" fill="#444445"/>
<path transform="translate(781,639)" d="m0 0v3l-13 13-8 6-1 2-3-1 11-10 8-7z" fill="#1B1A1B"/>
<path transform="translate(500,536)" d="m0 0h1l4 20v5h-2l-4-16z" fill="#4E4E4F"/>
<path transform="translate(780,462)" d="m0 0 3 3v3l2 1-3 5v5h-2v-2l-3-1 3-10-1-3z" fill="#525253"/>
<path transform="translate(458,634)" d="m0 0v3l-8 11-4 4-2-1 1-2h2l2-6 3-2 1-3h2v-3z" fill="#4F4F50"/>
<path transform="translate(610,312)" d="m0 0 3 1-15 6-11 6h-2v-2l6-4 10-4z" fill="#78797A"/>
<path transform="translate(609,286)" d="m0 0h7l5 2-1 2h-9l-3 1-6-2 2-2z" fill="#525253"/>
<path transform="translate(479,568)" d="m0 0h1v14l-1 6h-2v-16z" fill="#222122"/>
<path transform="translate(414,325)" d="m0 0 2 4 1 6v3 1h1v9h-1l-1-5-3-3-1-4 1-4z" fill="#525253"/>
<path transform="translate(917,857)" d="m0 0h6 1l1 2 7-1h14l-1 2-5 1-19-1-4-1z" fill="#58595A"/>
<path transform="translate(298,500)" d="m0 0 4 1-6 3-2 4-16 7-2-1 10-6 6-2 4-5z" fill="#525253"/>
<path transform="translate(362,488)" d="m0 0h5v2l-12 5-6 4h-8v-1l9-3 11-6z" fill="#525253"/>
<path transform="translate(101,669)" d="m0 0h4v2l7 1v1l-11 1h-10l8-4z" fill="#535354"/>
<path transform="translate(582,408)" d="m0 0h2v2h3v8l-4-1h-2l-4-1 4-4z" fill="#525253"/>
<path transform="translate(655,861)" d="m0 0h8l4 2-12 2-8-1h-7l4-2z" fill="#5C5D5E"/>
<path transform="translate(545,639)" d="m0 0 5 2 10 10-2 2-13-12z" fill="#414142"/>
<path transform="translate(768,445)" d="m0 0 3 1 3 11 2 4-6-1 1-4-2-3v-2z" fill="#515152"/>
<path transform="translate(724,437)" d="m0 0 3 3v5h2l1 6-5 2-1-2 1-6-2-7z" fill="#515152"/>
<path transform="translate(497,310)" d="m0 0h2l-2 4h-2l-1 7-3 1-3-4 4-2 1-5z" fill="#515152"/>
<path transform="translate(625,292)" d="m0 0h3l1 2 3 1 2 3 1 2-4 3-4-5-2-1v-3l-2-1z" fill="#525253"/>
<path transform="translate(772,387)" d="m0 0h2l-2 4-7 4-8 4h-2v-2l5-1v-2l7-2v-2h3v-2z" fill="#5A5B5C"/>
<path transform="translate(784,690)" d="m0 0h5l3 3-1 1h-28v-1l23-1z" fill="#646466"/>
<path transform="translate(425,666)" d="m0 0 2 3-10 6-5 1v-2z" fill="#424243"/>
<path transform="translate(190,670)" d="m0 0 2 3-10 1h-12l2-2 13-1z" fill="#525354"/>
<path transform="translate(687,364)" d="m0 0 8 1 8 2 5 2-2 2-5-1-14-5z" fill="#262526"/>
<path transform="translate(812,861)" d="m0 0 7 1v3l-4 1h-7l-3-2z" fill="#5C5D5E"/>
<path transform="translate(1013,851)" d="m0 0h11v6l-11-4z" fill="#A0A0A1"/>
<path transform="translate(544,699)" d="m0 0h7l1 2-2 3-9-1z" fill="#89898B"/>
<path transform="translate(656,358)" d="m0 0h24l5 1-2 2-27-2z" fill="#868688"/>
<path transform="translate(569,334)" d="m0 0 2 2-11 9-3 2v-3l10-9z" fill="#646566"/>
<path transform="translate(748,674)" d="m0 0h14l4 2-3 1h-8l-7-1z" fill="#7D7E7F"/>
<path transform="translate(559,534)" d="m0 0h2l2 12h-4l-1-9z" fill="#3B3B3C"/>
<path transform="translate(644,305)" d="m0 0h9l2 2-14 2-1 1h-5l4-4z" fill="#5B5B5D"/>
<path transform="translate(54,898)" d="m0 0 8 1 6 5v6l-2-2-3-6-6-2h-9v-1z" fill="#404041"/>
<path transform="translate(623,860)" d="m0 0 1 2 15 1v1h-24l1-3 7 1z" fill="#5C5D5E"/>
<path transform="translate(620,622)" d="m0 0 8 2 2 2 9 3v1l-9-1-7-2 1-2-4-2z" fill="#5D5D5E"/>
<path transform="translate(833,856)" d="m0 0h4v3h2l-1 3-10-2-2-3 7 1z" fill="#4F4F50"/>
<path transform="translate(139,682)" d="m0 0h14l-4 4h-6v-2h-4z" fill="#848486"/>
<path transform="translate(350,345)" d="m0 0 3 4v2l-4 2v3l-2 5-1-3v-6l1-2h2z" fill="#515152"/>
<path transform="translate(759,337)" d="m0 0 5 2 5 5v2l-4-1-7-6z" fill="#454546"/>
<path transform="translate(783,610)" d="m0 0 5 2 8 7-4 1-8-7z" fill="#5D5D5F"/>
<path transform="translate(624,388)" d="m0 0 5 4-1 6-4-2-2-6z" fill="#525253"/>
<path transform="translate(564,275)" d="m0 0 10 2 5 2-1 2-5-1-7-2-2-1z" fill="#525253"/>
<path transform="translate(230,668)" d="m0 0 8 1 6 3h-17l3-1z" fill="#595A5B"/>
<path transform="translate(475,578)" d="m0 0 2 4-1 11h-2l-1 4 1-11z" fill="#5A5A5B"/>
<path transform="translate(641,427)" d="m0 0 1 2h2l2 6 1 2h-5l-2-3-1-5h2z" fill="#525253"/>
<path transform="translate(101,711)" d="m0 0h13l5 1v1l-15 1-3-1z" fill="#7E7F80"/>
<path transform="translate(279,703)" d="m0 0h7l3 4-9 1z" fill="#828384"/>
<path transform="translate(384,398)" d="m0 0h3l4 8-1 4-2 2-1-5 1-2-2-1-1-4z" fill="#525253"/>
<path transform="translate(541,291)" d="m0 0 2 3v4h2l-1 3h-5l-1-3z" fill="#525253"/>
<path transform="translate(660,285)" d="m0 0 4 1 3 3v2l7 1-1 2h-5l-5-5z" fill="#525253"/>
<path transform="translate(435,706)" d="m0 0h20l2 2-8 1-14-2z" fill="#999A9B"/>
<path transform="translate(282,675)" d="m0 0 4 2v2h-10l1-3z" fill="#414243"/>
<path transform="translate(287,694)" d="m0 0h11l-1 3-6 1-4-1 2-1z" fill="#6C6C6E"/>
<path transform="translate(413,597)" d="m0 0 2 3-4 7h-2l-2 4v-3z" fill="#636364"/>
<path transform="translate(636,361)" d="m0 0 5 1-3 2-11 3 4-4z" fill="#696A6B"/>
<path transform="translate(699,862)" d="m0 0h13l-2 2-11 1z" fill="#5D5E5F"/>
<path transform="translate(990,855)" d="m0 0 1 3h8l-3 2h-11l1-2 3-2z" fill="#5B5C5D"/>
<path transform="translate(865,857)" d="m0 0 3 1 4 2-6 2-6 1 1-3z" fill="#5A5B5C"/>
<path transform="translate(421,674)" d="m0 0 4 2-3 3h-8l4-3z" fill="#424243"/>
<path transform="translate(905,539)" d="m0 0 4 1 1 4-6-1-2-1v-2z" fill="#525253"/>
<path transform="translate(118,709)" d="m0 0h8l1 2-13 1-2-2z" fill="#8A8A8C"/>
<path transform="translate(149,705)" d="m0 0 7 1 6-1v2l-4 1h-13l4-1z" fill="#7E7F80"/>
<path transform="translate(670,405)" d="m0 0 2 2v3l4-1v5h-3l-4-5z" fill="#525253"/>
<path transform="translate(574,297)" d="m0 0h5v2l3-1 2 2-1 1h-8l-2-3z" fill="#525253"/>
<path transform="translate(592,675)" d="m0 0 10 4 1 3-9-3-2-1z" fill="#262526"/>
<path transform="translate(559,652)" d="m0 0 4 1 6 5v2l-5-2-5-4z" fill="#464647"/>
<path transform="translate(657,381)" d="m0 0 1 4 2 1-6 2-1-4z" fill="#515152"/>
<path transform="translate(670,305)" d="m0 0h10l3 3h-12z" fill="#404041"/>
</svg>
