<?xml version="1.0" standalone="no"?>
<!DOCTYPE svg PUBLIC "-//W3C//DTD SVG 20010904//EN"
 "http://www.w3.org/TR/2001/REC-SVG-20010904/DTD/svg10.dtd">
<svg version="1.0" xmlns="http://www.w3.org/2000/svg"
 width="1024.000000pt" height="1024.000000pt" viewBox="0 0 1024.000000 1024.000000"
 preserveAspectRatio="xMidYMid meet">

<g transform="translate(0.000000,1024.000000) scale(0.100000,-0.100000)"
fill="#000000" stroke="none">
<path d="M0 6670 c0 -2486 3 -3570 10 -3570 6 0 127 51 268 114 141 62 290
128 330 145 59 26 90 33 155 36 138 6 221 17 236 32 11 12 30 14 89 8 54 -5
77 -4 82 5 5 9 13 9 27 2 10 -6 40 -8 65 -6 26 2 49 1 52 -4 2 -4 -3 -8 -12
-8 -9 -1 -69 -4 -132 -7 -63 -4 -124 -7 -134 -7 -11 0 -16 -3 -13 -7 9 -9 336
-10 331 -1 -2 4 1 10 7 13 16 11 334 14 350 4 9 -6 2 -8 -21 -5 -19 2 -53 0
-75 -5 -25 -5 25 -7 138 -3 130 3 177 2 172 -7 -5 -8 9 -9 49 -4 39 5 56 4 56
-4 0 -6 -18 -11 -44 -11 -25 0 -47 -4 -50 -9 -3 -5 16 -6 42 -4 35 3 43 2 32
-6 -9 -7 -52 -9 -110 -7 -52 3 -83 2 -67 0 15 -3 27 -10 27 -15 0 -5 -3 -8 -7
-7 -16 4 -113 -13 -113 -20 0 -6 107 -9 455 -12 62 0 85 -3 75 -10 -9 -6 -10
-10 -3 -10 6 0 15 5 18 10 4 6 28 10 55 9 28 -1 47 -6 43 -12 -3 -5 4 -4 15 2
26 14 42 14 22 0 -11 -8 -6 -9 24 -7 31 4 35 2 22 -8 -15 -11 -15 -12 0 -18 8
-3 23 -6 32 -5 14 0 13 2 -3 10 -17 8 -16 8 5 3 14 -3 48 -10 75 -14 57 -8 43
-11 -66 -13 -62 -2 -75 1 -71 12 4 11 -2 13 -33 8 -81 -13 -52 -39 44 -39 39
0 71 -3 71 -8 0 -14 -43 -19 -88 -11 -23 5 -62 5 -86 0 -23 -4 -67 -8 -97 -7
-90 1 -117 -2 -95 -11 31 -12 183 -13 191 -2 3 6 30 11 58 11 37 0 48 -3 37
-10 -18 -12 -23 -11 80 -15 79 -4 83 -3 55 10 -16 8 -24 14 -17 15 7 0 10 5 7
10 -4 6 5 10 19 10 14 0 26 5 26 10 0 6 12 10 28 10 l27 0 -30 -16 c-35 -18
-48 -30 -20 -19 11 4 30 7 42 6 13 0 22 4 20 11 -1 7 18 11 58 10 33 0 60 -2
60 -3 0 -7 136 -5 141 2 3 5 9 7 14 4 5 -3 19 -1 31 6 12 6 19 7 16 2 -3 -5 6
-8 21 -7 15 1 42 2 60 3 18 0 31 5 27 10 -3 6 12 8 37 5 40 -5 99 -6 151 -4
12 1 49 1 82 0 33 0 67 0 75 1 8 1 36 -1 63 -5 31 -5 47 -4 47 3 0 6 -15 11
-34 11 -19 0 -37 4 -40 8 -2 4 27 6 66 4 58 -4 69 -2 62 9 -7 12 -5 12 9 1 9
-8 20 -11 25 -8 12 7 203 10 222 3 28 -10 100 -15 100 -7 0 5 -5 10 -10 12 -6
1 66 2 159 2 93 -1 174 -5 180 -8 6 -4 17 -4 23 0 14 9 154 14 182 7 10 -3 14
-8 8 -12 -5 -3 16 -6 49 -6 32 -1 59 2 59 5 0 4 7 7 15 7 8 0 11 -5 8 -10 -4
-6 5 -7 23 -3 44 12 18 -7 -29 -21 -36 -10 -24 -11 78 -5 66 3 130 6 143 6 14
0 21 5 18 12 -3 8 9 14 32 17 37 5 52 6 125 7 22 0 37 5 37 12 0 6 6 4 13 -7
8 -10 19 -15 25 -11 19 11 53 16 47 6 -3 -5 3 -13 13 -19 25 -13 121 -21 128
-10 3 5 13 5 24 -1 24 -13 30 -13 30 1 0 5 -4 8 -9 4 -5 -3 -12 -2 -15 3 -3 5
42 8 100 7 68 -1 101 1 92 7 -9 7 -6 8 10 5 12 -3 22 -1 22 5 0 6 11 3 25 -6
13 -9 32 -16 42 -15 11 0 13 3 6 6 -31 12 -7 18 70 16 225 -4 431 -2 419 6 -6
3 166 6 382 7 775 1 1429 13 1437 26 12 20 -63 37 -181 43 -58 3 -130 8 -160
10 -30 2 -108 4 -172 5 -66 0 -118 4 -118 9 0 5 13 8 30 6 16 -2 32 0 35 6 4
5 33 9 66 9 33 0 59 4 59 10 0 6 -3 9 -7 9 -5 -1 -15 0 -23 1 -24 3 30 18 75
20 78 4 -4 16 -106 15 l-96 0 50 28 c28 15 85 48 126 74 68 43 79 46 135 46
135 -2 549 -14 671 -20 72 -3 147 -5 168 -5 22 1 35 -2 32 -8 -3 -6 -1 -10 4
-10 6 0 11 5 11 10 0 6 15 9 33 9 l32 -1 -30 -8 c-35 -9 -29 -11 39 -16 27 -1
52 -7 55 -13 4 -5 22 -9 41 -8 40 1 242 -13 251 -18 3 -2 86 -7 185 -10 98 -4
195 -11 214 -17 36 -11 169 -70 575 -255 127 -58 249 -114 273 -124 l42 -18 0
3574 0 3575 -5120 0 -5120 0 0 -3570z m6975 511 c218 -50 403 -132 587 -261
101 -70 312 -275 367 -355 l33 -50 -38 45 c-85 100 -244 256 -322 314 -234
177 -523 289 -810 316 -216 20 -484 -14 -692 -89 -46 -16 -86 -28 -88 -26 -6
6 166 68 255 90 140 37 221 44 428 40 146 -3 211 -8 280 -24z m-2181 -2 l26
-20 -1 -292 c-1 -161 -4 -350 -8 -422 -5 -104 -8 -47 -15 291 -4 232 -12 427
-16 434 -6 10 -69 13 -279 14 -149 0 -265 4 -258 8 6 4 127 8 268 8 244 0 258
-1 283 -21z m-586 -1126 c-1 -702 -4 -1019 -9 -853 -8 337 -11 1933 -3 1954 3
9 8 16 10 16 2 0 3 -503 2 -1117z m570 219 c-1 -477 -5 -766 -8 -642 -11 416
-11 1522 0 1515 6 -4 9 -308 8 -873z m1202 783 c-14 -8 -29 -14 -35 -14 -5 0
1 6 15 14 14 8 30 14 35 14 6 0 -1 -6 -15 -14z m913 -424 c109 -29 225 -81
320 -145 83 -55 249 -202 268 -238 6 -10 -27 19 -73 65 -144 143 -338 257
-527 308 -43 12 -132 24 -206 29 l-130 8 135 -3 c97 -2 157 -9 213 -24z m-370
12 c-7 -2 -19 -2 -25 0 -7 3 -2 5 12 5 14 0 19 -2 13 -5z m-1308 -313 c-9 -16
-18 -30 -21 -30 -2 0 2 14 11 30 9 17 18 30 21 30 2 0 -2 -13 -11 -30z m-68
-137 c-54 -106 -113 -301 -148 -488 -15 -78 -18 -87 -14 -38 7 79 54 272 94
383 35 101 81 203 88 197 2 -3 -7 -27 -20 -54z m574 -136 c-10 -9 -11 -8 -5 6
3 10 9 15 12 12 3 -3 0 -11 -7 -18z m-30 -64 c-11 -21 -20 -35 -21 -31 0 12
33 78 38 74 2 -2 -6 -21 -17 -43z m-30 -70 c-12 -20 -14 -14 -5 12 4 9 9 14
11 11 3 -2 0 -13 -6 -23z m-22 -59 c-6 -16 -22 -67 -35 -114 -13 -47 -21 -67
-18 -45 7 49 54 198 60 192 3 -2 0 -17 -7 -33z m-62 -236 c-3 -7 -5 -2 -5 12
0 14 2 19 5 13 2 -7 2 -19 0 -25z m-10 -55 c-3 -10 -5 -4 -5 12 0 17 2 24 5
18 2 -7 2 -21 0 -30z m-590 -40 c-2 -16 -4 -5 -4 22 0 28 2 40 4 28 2 -13 2
-35 0 -50z m580 -30 c-3 -10 -5 -2 -5 17 0 19 2 27 5 18 2 -10 2 -26 0 -35z
m-590 -125 c-2 -24 -4 -7 -4 37 0 44 2 63 4 43 2 -21 2 -57 0 -80z m580 10
c-2 -18 -4 -6 -4 27 0 33 2 48 4 33 2 -15 2 -42 0 -60z m-770 -40 c-3 -8 -6
-5 -6 6 -1 11 2 17 5 13 3 -3 4 -12 1 -19z m-570 -460 c-3 -8 -6 -5 -6 6 -1
11 2 17 5 13 3 -3 4 -12 1 -19z m3433 -600 c189 -141 236 -181 90 -76 -175
125 -260 188 -260 194 0 8 13 -1 170 -118z m-4585 -218 c10 -11 16 -20 13 -20
-3 0 -13 9 -23 20 -10 11 -16 20 -13 20 3 0 13 -9 23 -20z m3752 -166 c-3 -3
-12 -4 -19 -1 -8 3 -5 6 6 6 11 1 17 -2 13 -5z m-274 -11 c-7 -2 -19 -2 -25 0
-7 3 -2 5 12 5 14 0 19 -2 13 -5z m210 0 c-7 -2 -19 -2 -25 0 -7 3 -2 5 12 5
14 0 19 -2 13 -5z m1493 -292 c-3 -5 -15 -7 -26 -4 -28 7 -25 13 6 13 14 0 23
-4 20 -9z m759 -16 c6 -2 -20 -4 -57 -4 -38 -1 -68 3 -68 7 0 8 101 5 125 -3z
m62 -11 c-3 -3 -12 -4 -19 -1 -8 3 -5 6 6 6 11 1 17 -2 13 -5z m-8191 -109
c-11 -8 -25 -15 -30 -15 -6 1 0 7 14 15 32 19 40 18 16 0z m344 -5 c0 -5 -4
-10 -10 -10 -5 0 -10 5 -10 10 0 6 5 10 10 10 6 0 10 -4 10 -10z m-217 -17
c-7 -2 -19 -2 -25 0 -7 3 -2 5 12 5 14 0 19 -2 13 -5z m-206 -25 c-3 -8 -6 -5
-6 6 -1 11 2 17 5 13 3 -3 4 -12 1 -19z m148 12 c-3 -5 -15 -10 -26 -10 -11 0
-17 5 -14 10 3 6 15 10 26 10 11 0 17 -4 14 -10z m894 0 c-31 -4 -61 -10 -67
-14 -8 -5 -10 -1 -6 8 5 12 20 16 68 15 l61 -2 -56 -7z m-979 -11 c0 -5 -11
-9 -25 -9 -14 0 -25 4 -25 9 0 5 11 9 25 9 14 0 25 -4 25 -9z m1300 -25 c8 -1
26 -2 40 -4 49 -4 -16 -15 -72 -11 -47 3 -49 4 -27 15 13 7 29 10 34 7 6 -3
17 -6 25 -7z m134 -19 c28 4 29 4 6 -4 -14 -5 -41 -9 -60 -9 -19 0 -27 2 -17
5 9 2 17 10 17 16 0 8 3 8 11 0 7 -7 26 -10 43 -8z m63 -1 c-3 -3 -12 -4 -19
-1 -8 3 -5 6 6 6 11 1 17 -2 13 -5z m-274 -21 c-7 -2 -21 -2 -30 0 -10 3 -4 5
12 5 17 0 24 -2 18 -5z m-176 -9 c-3 -3 -12 -4 -19 -1 -8 3 -5 6 6 6 11 1 17
-2 13 -5z m2891 -69 c-3 -3 -9 2 -12 12 -6 14 -5 15 5 6 7 -7 10 -15 7 -18z
m87 15 c-3 -5 -16 -10 -28 -9 -20 1 -20 2 3 9 14 4 26 8 28 9 2 1 0 -3 -3 -9z
m-938 -16 c-3 -3 -12 -4 -19 -1 -8 3 -5 6 6 6 11 1 17 -2 13 -5z m-1094 -23
c13 -2 7 -19 -9 -25 -9 -4 -23 -1 -31 6 -8 7 -24 14 -36 15 -66 10 3 14 76 4z
m30 -16 c-3 -9 -8 -14 -10 -11 -3 3 -2 9 2 15 9 16 15 13 8 -4z"/>
<path d="M7595 3580 l-40 -5 55 -8 c54 -7 284 -8 245 -1 -50 10 -224 18 -260
14z"/>
<path d="M7508 3483 c7 -3 16 -2 19 1 4 3 -2 6 -13 5 -11 0 -14 -3 -6 -6z"/>
<path d="M7553 3483 c9 -2 25 -2 35 0 9 3 1 5 -18 5 -19 0 -27 -2 -17 -5z"/>
<path d="M1455 3399 c-49 -3 -76 -6 -60 -8 17 -1 41 -4 55 -5 32 -4 118 8 105
14 -5 3 -50 2 -100 -1z"/>
<path d="M1850 3390 c-20 -6 -21 -8 -5 -8 11 0 31 4 45 8 20 6 21 8 5 8 -11 0
-31 -4 -45 -8z"/>
<path d="M1750 3376 c7 -7 14 -6 21 1 9 9 7 12 -9 10 -14 -1 -18 -5 -12 -11z"/>
<path d="M1618 3373 c7 -3 16 -2 19 1 4 3 -2 6 -13 5 -11 0 -14 -3 -6 -6z"/>
<path d="M1333 3353 c9 -2 23 -2 30 0 6 3 -1 5 -18 5 -16 0 -22 -2 -12 -5z"/>
<path d="M1404 3348 c9 -5 23 -5 32 0 12 6 7 9 -16 9 -23 0 -28 -3 -16 -9z"/>
<path d="M980 3328 c0 -4 16 -8 35 -8 19 0 35 2 35 4 0 2 -16 6 -35 8 -19 2
-35 0 -35 -4z"/>
<path d="M1388 3334 c-4 -3 -51 -8 -104 -10 -96 -5 -113 -8 -102 -20 12 -11
72 -13 141 -3 40 5 100 10 134 12 69 3 90 12 44 19 -16 2 -28 1 -25 -4 5 -8
-41 -4 -67 6 -8 4 -18 4 -21 0z"/>
<path d="M1645 3331 c3 -5 -1 -12 -7 -14 -8 -4 -7 -6 4 -6 23 -1 32 15 12 23
-8 3 -13 2 -9 -3z"/>
<path d="M1558 3323 c12 -2 32 -2 45 0 12 2 2 4 -23 4 -25 0 -35 -2 -22 -4z"/>
<path d="M780 3295 c0 -19 10 -20 90 -17 77 4 95 17 28 21 -24 1 -60 4 -80 6
-27 2 -38 0 -38 -10z"/>
<path d="M1000 3302 c-36 -3 -49 -6 -36 -11 10 -4 48 -3 85 1 36 5 78 6 94 4
15 -3 27 -1 27 4 0 10 -60 10 -170 2z"/>
<path d="M1024 3269 c-3 -5 16 -9 42 -9 26 0 45 3 42 6 -10 10 -78 12 -84 3z"/>
<path d="M1120 3270 c0 -5 7 -10 15 -10 8 0 15 5 15 10 0 6 -7 10 -15 10 -8 0
-15 -4 -15 -10z"/>
<path d="M2308 3273 c6 -2 18 -2 25 0 6 3 1 5 -13 5 -14 0 -19 -2 -12 -5z"/>
<path d="M6845 3270 c3 -5 10 -10 16 -10 5 0 9 5 9 10 0 6 -7 10 -16 10 -8 0
-12 -4 -9 -10z"/>
<path d="M860 3260 l-45 -7 58 -1 c37 -1 56 2 52 8 -3 6 -9 9 -13 8 -4 0 -27
-4 -52 -8z"/>
<path d="M958 3258 c17 -8 26 -8 34 0 9 9 4 12 -22 11 -33 0 -34 -1 -12 -11z"/>
<path d="M5113 3244 c0 -16 13 -19 21 -5 3 5 0 11 -7 14 -8 3 -14 -1 -14 -9z"/>
<path d="M4915 3240 c-16 -7 -17 -9 -3 -9 9 -1 20 4 23 9 7 11 7 11 -20 0z"/>
<path d="M4987 3237 c2 -4 27 -7 54 -6 27 2 47 4 45 7 -9 8 -104 7 -99 -1z"/>
<path d="M5365 3240 c-3 -5 -1 -10 4 -10 6 0 11 5 11 10 0 6 -2 10 -4 10 -3 0
-8 -4 -11 -10z"/>
<path d="M3135 3220 c3 -5 8 -10 11 -10 2 0 4 5 4 10 0 6 -5 10 -11 10 -5 0
-7 -4 -4 -10z"/>
<path d="M2178 3213 c7 -3 16 -2 19 1 4 3 -2 6 -13 5 -11 0 -14 -3 -6 -6z"/>
<path d="M2215 3210 c-3 -6 1 -7 9 -4 18 7 21 14 7 14 -6 0 -13 -4 -16 -10z"/>
<path d="M4770 3210 c-23 -8 -23 -8 7 -7 17 1 29 5 27 9 -3 4 -6 8 -7 7 -1 -1
-13 -5 -27 -9z"/>
<path d="M2053 3203 c20 -2 54 -2 75 0 20 2 3 4 -38 4 -41 0 -58 -2 -37 -4z"/>
<path d="M2748 3193 c6 -2 18 -2 25 0 6 3 1 5 -13 5 -14 0 -19 -2 -12 -5z"/>
<path d="M1446 3179 c4 -8 -3 -9 -22 -5 -16 3 -42 2 -59 -2 -26 -8 -22 -9 26
-10 60 0 93 10 64 21 -10 4 -14 3 -9 -4z"/>
<path d="M1498 3178 c6 -6 18 -8 28 -6 14 3 12 5 -9 10 -19 3 -25 2 -19 -4z"/>
<path d="M1905 3180 c3 -5 16 -10 28 -9 21 0 21 1 2 9 -28 12 -37 12 -30 0z"/>
<path d="M585 3171 c-54 -5 -63 -7 -40 -13 38 -8 136 2 129 13 -3 5 -8 8 -12
7 -4 -1 -38 -4 -77 -7z"/>
<path d="M1660 3170 c0 -5 5 -10 11 -10 5 0 7 5 4 10 -3 6 -8 10 -11 10 -2 0
-4 -4 -4 -10z"/>
<path d="M2368 3173 c6 -2 18 -2 25 0 6 3 1 5 -13 5 -14 0 -19 -2 -12 -5z"/>
<path d="M290 3166 c0 -2 18 -6 40 -8 22 -2 40 0 40 4 0 5 -18 8 -40 8 -22 0
-40 -2 -40 -4z"/>
<path d="M385 3160 c-3 -6 1 -7 9 -4 18 7 21 14 7 14 -6 0 -13 -4 -16 -10z"/>
<path d="M468 3163 c7 -3 16 -2 19 1 4 3 -2 6 -13 5 -11 0 -14 -3 -6 -6z"/>
<path d="M1120 3160 c0 -6 7 -13 15 -17 24 -9 27 1 5 15 -13 8 -20 8 -20 2z"/>
<path d="M1168 3163 c7 -3 16 -2 19 1 4 3 -2 6 -13 5 -11 0 -14 -3 -6 -6z"/>
<path d="M1828 3163 c7 -3 16 -2 19 1 4 3 -2 6 -13 5 -11 0 -14 -3 -6 -6z"/>
<path d="M1233 3153 c9 -2 23 -2 30 0 6 3 -1 5 -18 5 -16 0 -22 -2 -12 -5z"/>
<path d="M1308 3153 c7 -3 16 -2 19 1 4 3 -2 6 -13 5 -11 0 -14 -3 -6 -6z"/>
<path d="M570 3139 c-41 -4 -78 -5 -82 -3 -5 3 -17 -1 -29 -10 -20 -13 -18
-14 22 -10 33 3 39 2 24 -5 -11 -5 -33 -10 -50 -11 -26 -1 -27 -3 -10 -10 12
-5 -61 -9 -185 -8 -113 0 -217 0 -232 -1 l-28 -1 0 -1540 0 -1540 5120 0 5120
0 0 389 c0 363 -1 390 -17 395 -10 2 -54 12 -98 20 -399 76 -1012 196 -1540
300 -66 14 -160 32 -210 41 -90 16 -440 84 -780 150 -99 19 -263 51 -365 70
-429 80 -768 150 -764 156 2 4 14 5 26 1 16 -4 19 -2 13 8 -6 10 -4 11 6 4 8
-5 77 -9 154 -10 83 0 130 3 115 8 -19 6 -17 7 10 3 19 -3 36 -10 38 -15 2 -5
10 -6 18 -3 7 3 11 9 8 14 -8 14 6 10 22 -6 9 -8 21 -15 27 -15 8 0 8 3 -1 9
-9 5 4 11 37 15 28 4 59 9 69 12 9 3 6 -2 -8 -10 l-25 -16 40 2 c22 2 43 8 47
13 4 6 8 2 8 -7 0 -20 11 -23 27 -7 6 6 61 12 124 14 63 1 125 6 139 10 14 4
36 6 50 4 29 -3 64 -2 269 4 170 5 288 -1 256 -14 -14 -5 -8 -8 23 -8 30 -1
41 2 36 11 -4 7 -3 8 4 4 11 -6 172 -20 200 -17 27 3 48 3 79 -3 20 -3 33 0
36 8 3 8 17 11 37 8 26 -4 31 -2 25 9 -7 12 -6 12 8 0 14 -11 25 -12 58 -2 21
7 45 9 51 5 7 -4 8 -3 4 4 -4 7 -3 12 3 12 5 0 13 -5 16 -10 4 -6 11 -8 16 -4
14 8 108 14 339 20 107 2 229 7 270 9 41 3 92 5 113 6 20 0 37 4 37 9 0 4 17
4 38 0 20 -5 114 -8 209 -7 95 0 175 -1 178 -4 2 -3 28 -2 57 1 29 4 76 6 105
4 29 -1 53 2 53 6 0 10 59 3 103 -10 24 -8 41 4 17 12 -5 2 27 4 73 5 56 2 77
0 67 -7 -19 -13 -8 -13 24 0 14 5 26 17 26 25 0 19 -44 60 -82 76 -39 16 -25
29 33 29 l49 0 0 670 0 670 -197 0 c-109 0 -1988 1 -4175 3 -2188 1 -3978 5
-3978 10 0 4 60 7 133 8 72 0 123 4 113 8 -11 4 -74 7 -140 6 -221 -3 -252 -5
-236 -15 8 -5 12 -10 10 -12 -3 -2 -178 -1 -390 2 -212 3 -347 6 -301 8 46 1
82 4 80 6 -3 3 -147 14 -207 16 -7 0 -11 3 -9 8 3 4 -22 7 -54 7 -33 0 -63 5
-67 11 -8 13 -142 15 -252 3z m33 -26 c-7 -2 -19 -2 -25 0 -7 3 -2 5 12 5 14
0 19 -2 13 -5z m172 -11 c-3 -3 -11 0 -18 7 -9 10 -8 11 6 5 10 -3 15 -9 12
-12z m42 12 c-3 -3 -12 -4 -19 -1 -8 3 -5 6 6 6 11 1 17 -2 13 -5z m90 -10
c-3 -3 -12 -4 -19 -1 -8 3 -5 6 6 6 11 1 17 -2 13 -5z m-90 -10 c-3 -3 -12 -4
-19 -1 -8 3 -5 6 6 6 11 1 17 -2 13 -5z m-214 -11 c-7 -2 -19 -2 -25 0 -7 3
-2 5 12 5 14 0 19 -2 13 -5z m60 0 c-7 -2 -21 -2 -30 0 -10 3 -4 5 12 5 17 0
24 -2 18 -5z m265 0 c-10 -2 -28 -2 -40 0 -13 2 -5 4 17 4 22 1 32 -1 23 -4z
m5515 -1560 c-7 -2 -19 -2 -25 0 -7 3 -2 5 12 5 14 0 19 -2 13 -5z"/>
<path d="M1735 3140 c-3 -5 1 -10 9 -10 9 0 16 5 16 10 0 6 -4 10 -9 10 -6 0
-13 -4 -16 -10z"/>
<path d="M1895 3140 c-3 -5 3 -10 15 -10 12 0 18 5 15 10 -3 6 -10 10 -15 10
-5 0 -12 -4 -15 -10z"/>
<path d="M1050 3120 c8 -5 40 -9 70 -9 40 0 49 3 35 9 -29 12 -124 12 -105 0z"/>
<path d="M1203 3123 c9 -2 23 -2 30 0 6 3 -1 5 -18 5 -16 0 -22 -2 -12 -5z"/>
<path d="M1358 3123 c7 -3 16 -2 19 1 4 3 -2 6 -13 5 -11 0 -14 -3 -6 -6z"/>
<path d="M1228 3103 c7 -3 16 -2 19 1 4 3 -2 6 -13 5 -11 0 -14 -3 -6 -6z"/>
<path d="M1708 3093 c6 -2 18 -2 25 0 6 3 1 5 -13 5 -14 0 -19 -2 -12 -5z"/>
<path d="M8748 1563 c7 -3 16 -2 19 1 4 3 -2 6 -13 5 -11 0 -14 -3 -6 -6z"/>
<path d="M7387 1543 c-4 -3 -7 -11 -7 -17 0 -6 5 -5 12 2 6 6 9 14 7 17 -3 3
-9 2 -12 -2z"/>
</g>
</svg>
